<svg width="37" height="36" viewBox="0 0 37 36" fill="none" xmlns="http://www.w3.org/2000/svg">
<g clip-path="url(#clip0_502_1905)">
<path d="M18.2972 0.00610352C28.2129 0.00610352 36.2503 8.04456 36.2503 17.9592C36.2503 27.8749 28.2129 35.9121 18.2972 35.9121C8.38146 35.9121 0.344238 27.8748 0.344238 17.9592C0.344238 8.04456 8.38158 0.00610352 18.2972 0.00610352Z" fill="#3B5998"/>
<path d="M20.4831 12.3656H22.7968V8.94775H20.077V8.96008C16.7814 9.0768 16.106 10.9293 16.0464 12.875H16.0397V14.5817H13.7956V17.9287H16.0397V26.9007H19.4216V17.9287H22.192L22.7271 14.5817H19.4227V13.5505C19.4227 12.893 19.8603 12.3656 20.4831 12.3656Z" fill="white"/>
</g>
<defs>
<clipPath id="clip0_502_1905">
<rect width="35.906" height="35.906" fill="white" transform="translate(0.344238 0.00610352)"/>
</clipPath>
</defs>
</svg>
