<svg width="31" height="32" viewBox="0 0 31 32" fill="none" xmlns="http://www.w3.org/2000/svg">
<g clip-path="url(#clip0_502_1896)">
<path d="M29.6682 13.318L17.2757 13.3174C16.7284 13.3174 16.2849 13.7609 16.2849 14.3081V18.267C16.2849 18.8141 16.7284 19.2577 17.2756 19.2577H24.2543C23.4902 21.2409 22.0639 22.9018 20.2442 23.9571L23.2199 29.1083C27.9933 26.3477 30.8154 21.5038 30.8154 16.0814C30.8154 15.3094 30.7585 14.7574 30.6447 14.136C30.5581 13.6638 30.1482 13.318 29.6682 13.318Z" fill="#167EE6"/>
<path d="M15.6243 25.2059C12.2091 25.2059 9.22763 23.3399 7.62634 20.5786L2.47528 23.5476C5.09662 28.0908 10.0072 31.1502 15.6243 31.1502C18.3799 31.1502 20.98 30.4083 23.2199 29.1153V29.1082L20.2441 23.957C18.883 24.7464 17.3079 25.2059 15.6243 25.2059Z" fill="#12B347"/>
<path d="M23.2196 29.1154V29.1083L20.2439 23.957C18.8828 24.7464 17.3078 25.206 15.6241 25.206V31.1503C18.3797 31.1503 20.9799 30.4083 23.2196 29.1154Z" fill="#0F993E"/>
<path d="M6.37742 15.9592C6.37742 14.2758 6.83683 12.7008 7.62611 11.3397L2.47505 8.37073C1.17497 10.6035 0.433105 13.1965 0.433105 15.9592C0.433105 18.7218 1.17497 21.3148 2.47505 23.5476L7.62611 20.5786C6.83683 19.2175 6.37742 17.6426 6.37742 15.9592Z" fill="#FFD500"/>
<path d="M15.6243 6.7125C17.8514 6.7125 19.8971 7.50386 21.495 8.82019C21.8892 9.1449 22.4621 9.12146 22.8232 8.76038L25.6282 5.95538C26.0378 5.5457 26.0086 4.8751 25.571 4.49545C22.8939 2.17294 19.4106 0.768188 15.6243 0.768188C10.0072 0.768188 5.09662 3.82758 2.47528 8.37075L7.62634 11.3398C9.22763 8.5785 12.2091 6.7125 15.6243 6.7125Z" fill="#FF4B26"/>
<path d="M21.4947 8.8202C21.8889 9.1449 22.4619 9.12146 22.8229 8.76038L25.6279 5.95538C26.0376 5.5457 26.0084 4.8751 25.5708 4.49545C22.8937 2.17288 19.4104 0.768188 15.6241 0.768188V6.7125C17.8511 6.7125 19.8969 7.50386 21.4947 8.8202Z" fill="#D93F21"/>
</g>
<defs>
<clipPath id="clip0_502_1896">
<rect width="30.382" height="30.382" fill="white" transform="translate(0.433105 0.768188)"/>
</clipPath>
</defs>
</svg>
