<svg width="45" height="45" viewBox="0 0 45 45" fill="none" xmlns="http://www.w3.org/2000/svg">
<circle cx="22.2997" cy="22.5001" r="22.1" fill="#F5F7FA"/>
<path d="M13.7998 28.875C13.7998 27.7478 14.2476 26.6668 15.0446 25.8698C15.8416 25.0728 16.9226 24.625 18.0498 24.625H26.5498C27.6769 24.625 28.7579 25.0728 29.555 25.8698C30.352 26.6668 30.7998 27.7478 30.7998 28.875C30.7998 29.4386 30.5759 29.9791 30.1774 30.3776C29.7789 30.7761 29.2384 31 28.6748 31H15.9248C15.3612 31 14.8207 30.7761 14.4222 30.3776C14.0237 29.9791 13.7998 29.4386 13.7998 28.875Z" stroke="#151718" stroke-width="1.5" stroke-linejoin="round"/>
<path d="M22.2998 20.375C24.0602 20.375 25.4873 18.9479 25.4873 17.1875C25.4873 15.4271 24.0602 14 22.2998 14C20.5394 14 19.1123 15.4271 19.1123 17.1875C19.1123 18.9479 20.5394 20.375 22.2998 20.375Z" stroke="#151718" stroke-width="1.5"/>
</svg>
