<svg width="45" height="45" viewBox="0 0 45 45" fill="none" xmlns="http://www.w3.org/2000/svg">
<circle cx="22.2998" cy="22.5" r="22.1" fill="#F5F7FA"/>
<path d="M13.7999 28.8749C13.7999 27.7478 14.2476 26.6668 15.0447 25.8697C15.8417 25.0727 16.9227 24.6249 18.0499 24.6249H26.5498C27.677 24.6249 28.758 25.0727 29.555 25.8697C30.3521 26.6668 30.7998 27.7478 30.7998 28.8749C30.7998 29.4385 30.5759 29.979 30.1774 30.3775C29.7789 30.776 29.2384 30.9999 28.6748 30.9999H15.9249C15.3613 30.9999 14.8208 30.776 14.4223 30.3775C14.0237 29.979 13.7999 29.4385 13.7999 28.8749Z" stroke="#151718" stroke-width="1.5" stroke-linejoin="round"/>
<path d="M22.2996 20.375C24.06 20.375 25.4871 18.9479 25.4871 17.1875C25.4871 15.4271 24.06 14 22.2996 14C20.5392 14 19.1121 15.4271 19.1121 17.1875C19.1121 18.9479 20.5392 20.375 22.2996 20.375Z" stroke="#151718" stroke-width="1.5"/>
</svg>
