<svg width="45" height="45" viewBox="0 0 45 45" fill="none" xmlns="http://www.w3.org/2000/svg">
<circle cx="22.4999" cy="22.5001" r="22.1" fill="#F5F7FA"/>
<path d="M27.4687 31.85C27.2193 31.8498 26.9756 31.7715 26.7689 31.6252L22.5591 28.6661C22.5384 28.6511 22.5138 28.643 22.4886 28.643C22.4634 28.643 22.4388 28.6511 22.4181 28.6661L18.2083 31.6252C17.9969 31.7732 17.7475 31.8503 17.4934 31.8462C17.2392 31.8421 16.9923 31.757 16.7853 31.6023C16.5783 31.4475 16.4212 31.2304 16.3346 30.9797C16.2481 30.7291 16.2363 30.4567 16.3009 30.1989L17.6835 25.0856C17.69 25.0599 17.6892 25.0328 17.6812 25.0075C17.6732 24.9823 17.6583 24.96 17.6383 24.9436L13.6543 21.659C13.4445 21.4952 13.2889 21.2666 13.2093 21.0053C13.1297 20.7441 13.1301 20.4632 13.2104 20.2022C13.2906 19.9411 13.4468 19.713 13.657 19.5497C13.8671 19.3864 14.1207 19.2963 14.3822 19.2918L19.4611 19.0906C19.486 19.0888 19.51 19.0794 19.53 19.0637C19.55 19.0479 19.5653 19.0264 19.5739 19.0018L21.3233 14.0128C21.4115 13.7599 21.5716 13.5415 21.7821 13.3872C21.9925 13.2329 22.2431 13.1501 22.4999 13.1501C22.7567 13.1501 23.0072 13.2329 23.2177 13.3872C23.4281 13.5415 23.5883 13.7599 23.6765 14.0128L25.4259 19.0018C25.4345 19.0264 25.4498 19.0479 25.4698 19.0637C25.4898 19.0794 25.5137 19.0888 25.5387 19.0906L30.6175 19.2918C30.879 19.2963 31.1326 19.3864 31.3428 19.5497C31.553 19.713 31.7091 19.9411 31.7894 20.2022C31.8697 20.4632 31.87 20.7441 31.7904 21.0053C31.7108 21.2666 31.5552 21.4952 31.3455 21.659L27.3615 24.9436C27.3409 24.9595 27.3255 24.9817 27.3175 25.0071C27.3094 25.0325 27.309 25.06 27.3163 25.0856L28.6989 30.1989C28.7474 30.395 28.7522 30.6002 28.7129 30.7986C28.6737 30.997 28.5914 31.1833 28.4724 31.3429C28.3534 31.5026 28.201 31.6314 28.027 31.7193C27.8529 31.8073 27.6619 31.852 27.4687 31.85ZM22.4914 27.4588C22.7413 27.4668 22.9831 27.5534 23.1855 27.7074L27.3953 30.6664C27.4166 30.6834 27.4427 30.6927 27.4694 30.693C27.4962 30.6932 27.5224 30.6843 27.544 30.6677C27.5656 30.651 27.5814 30.6275 27.5892 30.6006C27.597 30.5737 27.5963 30.5449 27.5872 30.5185L26.2046 25.4052C26.1366 25.1544 26.1416 24.8879 26.219 24.6401C26.2964 24.3923 26.4427 24.1744 26.6391 24.0144L30.6232 20.7299C30.6449 20.7139 30.6612 20.691 30.6696 20.6646C30.678 20.6381 30.6781 20.6096 30.6699 20.5831C30.6617 20.5566 30.6456 20.5336 30.624 20.5174C30.6024 20.5012 30.5764 20.4927 30.5498 20.4932L25.471 20.2919C25.2223 20.2818 24.9822 20.1942 24.7811 20.0403C24.5801 19.8864 24.4274 19.6732 24.3424 19.4279L22.593 14.4389C22.5851 14.4124 22.5694 14.3893 22.548 14.3728C22.5267 14.3564 22.501 14.3475 22.4745 14.3475C22.448 14.3475 22.4223 14.3564 22.4009 14.3728C22.3796 14.3893 22.3639 14.4124 22.356 14.4389L20.6235 19.422C20.5385 19.6673 20.3858 19.8805 20.1848 20.0344C19.9838 20.1882 19.7436 20.2759 19.4949 20.286L14.4161 20.4872C14.3895 20.4868 14.3635 20.4953 14.3419 20.5115C14.3203 20.5277 14.3042 20.5507 14.296 20.5772C14.2878 20.6037 14.2879 20.6322 14.2963 20.6586C14.3047 20.6851 14.321 20.708 14.3427 20.724L18.3324 24.0144C18.5282 24.1749 18.6741 24.3928 18.7514 24.6405C18.8288 24.8881 18.8342 25.1543 18.7669 25.4052L17.39 30.5185C17.3818 30.5441 17.3818 30.5718 17.3899 30.5974C17.3981 30.623 17.4139 30.6452 17.4352 30.6605C17.4556 30.6788 17.4816 30.6889 17.5085 30.6889C17.5354 30.6889 17.5614 30.6788 17.5819 30.6605L21.7917 27.7014C21.9974 27.5583 22.2389 27.4821 22.4858 27.4825L22.4914 27.4588Z" fill="#151718"/>
</svg>
