<svg width="45" height="45" viewBox="0 0 45 45" fill="none" xmlns="http://www.w3.org/2000/svg">
<circle cx="22.6996" cy="22.5001" r="22.1" fill="#F5F7FA"/>
<path d="M27.7997 27.6C28.2505 27.6 28.6829 27.7791 29.0018 28.0979C29.3206 28.4167 29.4997 28.8491 29.4997 29.3C29.4997 29.7508 29.3206 30.1832 29.0018 30.502C28.6829 30.8209 28.2505 31 27.7997 31C27.3488 31 26.9164 30.8209 26.5976 30.502C26.2788 30.1832 26.0997 29.7508 26.0997 29.3C26.0997 28.3565 26.8562 27.6 27.7997 27.6ZM14.1997 14H16.9792L17.7782 15.7H30.3497C30.5751 15.7 30.7913 15.7895 30.9507 15.949C31.1101 16.1084 31.1997 16.3246 31.1997 16.55C31.1997 16.6945 31.1572 16.839 31.0977 16.975L28.0547 22.4745C27.7657 22.993 27.2047 23.35 26.5672 23.35H20.2347L19.4697 24.7355L19.4442 24.8375C19.4442 24.8938 19.4666 24.9479 19.5064 24.9877C19.5463 25.0276 19.6003 25.05 19.6567 25.05H29.4997V26.75H19.2997C18.8488 26.75 18.4164 26.5709 18.0976 26.2521C17.7788 25.9332 17.5997 25.5008 17.5997 25.05C17.5997 24.7525 17.6762 24.472 17.8037 24.234L18.9597 22.1515L15.8997 15.7H14.1997V14ZM19.2997 27.6C19.7506 27.6 20.183 27.7791 20.5018 28.0979C20.8206 28.4167 20.9997 28.8491 20.9997 29.3C20.9997 29.7508 20.8206 30.1832 20.5018 30.502C20.183 30.8209 19.7506 31 19.2997 31C18.8488 31 18.4164 30.8209 18.0976 30.502C17.7788 30.1832 17.5997 29.7508 17.5997 29.3C17.5997 28.3565 18.3562 27.6 19.2997 27.6ZM26.9497 21.65L29.3127 17.4H18.5687L20.5747 21.65H26.9497Z" fill="#151718"/>
</svg>
