<svg width="45" height="45" viewBox="0 0 45 45" fill="none" xmlns="http://www.w3.org/2000/svg">
<circle cx="22.4999" cy="22.5" r="22.1" fill="#F5F7FA"/>
<path d="M27.4687 31.8499C27.2193 31.8496 26.9756 31.7713 26.7689 31.625L22.5591 28.6659C22.5384 28.6509 22.5138 28.6429 22.4886 28.6429C22.4634 28.6429 22.4388 28.6509 22.4181 28.6659L18.2083 31.625C17.9969 31.773 17.7475 31.8501 17.4934 31.846C17.2392 31.8419 16.9923 31.7568 16.7853 31.6021C16.5783 31.4473 16.4212 31.2302 16.3346 30.9795C16.2481 30.7289 16.2363 30.4565 16.3009 30.1987L17.6835 25.0854C17.69 25.0597 17.6892 25.0326 17.6812 25.0073C17.6732 24.9821 17.6583 24.9599 17.6383 24.9434L13.6543 21.6588C13.4445 21.495 13.2889 21.2664 13.2093 21.0051C13.1297 20.7439 13.1301 20.463 13.2104 20.202C13.2906 19.9409 13.4468 19.7128 13.657 19.5495C13.8671 19.3863 14.1207 19.2961 14.3822 19.2916L19.4611 19.0904C19.486 19.0886 19.51 19.0792 19.53 19.0635C19.55 19.0477 19.5653 19.0262 19.5739 19.0016L21.3233 14.0126C21.4115 13.7597 21.5716 13.5413 21.7821 13.387C21.9925 13.2327 22.2431 13.15 22.4999 13.15C22.7567 13.15 23.0072 13.2327 23.2177 13.387C23.4281 13.5413 23.5883 13.7597 23.6765 14.0126L25.4259 19.0016C25.4345 19.0262 25.4498 19.0477 25.4698 19.0635C25.4898 19.0792 25.5137 19.0886 25.5387 19.0904L30.6175 19.2916C30.879 19.2961 31.1326 19.3863 31.3428 19.5495C31.553 19.7128 31.7091 19.9409 31.7894 20.202C31.8697 20.463 31.87 20.7439 31.7904 21.0051C31.7108 21.2664 31.5552 21.495 31.3455 21.6588L27.3615 24.9434C27.3409 24.9593 27.3255 24.9815 27.3175 25.0069C27.3094 25.0324 27.309 25.0598 27.3163 25.0854L28.6989 30.1987C28.7474 30.3948 28.7522 30.6 28.7129 30.7984C28.6737 30.9968 28.5914 31.1831 28.4724 31.3427C28.3534 31.5024 28.201 31.6312 28.027 31.7191C27.8529 31.8071 27.6619 31.8518 27.4687 31.8499ZM22.4914 27.4586C22.7413 27.4666 22.9831 27.5532 23.1855 27.7072L27.3953 30.6662C27.4166 30.6832 27.4427 30.6926 27.4694 30.6928C27.4962 30.693 27.5224 30.6841 27.544 30.6675C27.5656 30.6508 27.5814 30.6273 27.5892 30.6004C27.597 30.5735 27.5963 30.5447 27.5872 30.5183L26.2046 25.405C26.1366 25.1542 26.1416 24.8878 26.219 24.6399C26.2964 24.3921 26.4427 24.1742 26.6391 24.0143L30.6232 20.7297C30.6449 20.7137 30.6612 20.6908 30.6696 20.6644C30.678 20.638 30.6781 20.6094 30.6699 20.5829C30.6617 20.5564 30.6456 20.5334 30.624 20.5172C30.6024 20.501 30.5764 20.4925 30.5498 20.493L25.471 20.2918C25.2223 20.2816 24.9822 20.194 24.7811 20.0401C24.5801 19.8862 24.4274 19.673 24.3424 19.4277L22.593 14.4387C22.5851 14.4122 22.5694 14.3891 22.548 14.3726C22.5267 14.3562 22.501 14.3473 22.4745 14.3473C22.448 14.3473 22.4223 14.3562 22.4009 14.3726C22.3796 14.3891 22.3639 14.4122 22.356 14.4387L20.6235 19.4218C20.5385 19.6671 20.3858 19.8803 20.1848 20.0342C19.9838 20.1881 19.7436 20.2757 19.4949 20.2858L14.4161 20.4871C14.3895 20.4866 14.3635 20.4951 14.3419 20.5113C14.3203 20.5275 14.3042 20.5505 14.296 20.577C14.2878 20.6035 14.2879 20.632 14.2963 20.6585C14.3047 20.6849 14.321 20.7078 14.3427 20.7238L18.3324 24.0143C18.5282 24.1747 18.6741 24.3927 18.7514 24.6403C18.8288 24.888 18.8342 25.1541 18.7669 25.405L17.39 30.5183C17.3818 30.5439 17.3818 30.5716 17.3899 30.5972C17.3981 30.6229 17.4139 30.645 17.4352 30.6603C17.4556 30.6787 17.4816 30.6887 17.5085 30.6887C17.5354 30.6887 17.5614 30.6787 17.5819 30.6603L21.7917 27.7013C21.9974 27.5581 22.2389 27.482 22.4858 27.4823L22.4914 27.4586Z" fill="#151718"/>
</svg>
