<svg width="45" height="45" viewBox="0 0 45 45" fill="none" xmlns="http://www.w3.org/2000/svg">
<circle cx="22.6996" cy="22.5" r="22.1" fill="#F5F7FA"/>
<path d="M27.7997 27.5999C28.2505 27.5999 28.6829 27.779 29.0018 28.0978C29.3206 28.4166 29.4997 28.849 29.4997 29.2999C29.4997 29.7508 29.3206 30.1832 29.0018 30.502C28.6829 30.8208 28.2505 30.9999 27.7997 30.9999C27.3488 30.9999 26.9164 30.8208 26.5976 30.502C26.2788 30.1832 26.0997 29.7508 26.0997 29.2999C26.0997 28.3564 26.8562 27.5999 27.7997 27.5999ZM14.1997 13.9999H16.9792L17.7782 15.6999H30.3497C30.5751 15.6999 30.7913 15.7895 30.9507 15.9489C31.1101 16.1083 31.1997 16.3245 31.1997 16.5499C31.1997 16.6944 31.1572 16.8389 31.0977 16.9749L28.0547 22.4744C27.7657 22.9929 27.2047 23.3499 26.5672 23.3499H20.2347L19.4697 24.7354L19.4442 24.8374C19.4442 24.8938 19.4666 24.9478 19.5064 24.9877C19.5463 25.0275 19.6003 25.0499 19.6567 25.0499H29.4997V26.7499H19.2997C18.8488 26.7499 18.4164 26.5708 18.0976 26.252C17.7788 25.9332 17.5997 25.5008 17.5997 25.0499C17.5997 24.7524 17.6762 24.4719 17.8037 24.2339L18.9597 22.1514L15.8997 15.6999H14.1997V13.9999ZM19.2997 27.5999C19.7506 27.5999 20.183 27.779 20.5018 28.0978C20.8206 28.4166 20.9997 28.849 20.9997 29.2999C20.9997 29.7508 20.8206 30.1832 20.5018 30.502C20.183 30.8208 19.7506 30.9999 19.2997 30.9999C18.8488 30.9999 18.4164 30.8208 18.0976 30.502C17.7788 30.1832 17.5997 29.7508 17.5997 29.2999C17.5997 28.3564 18.3562 27.5999 19.2997 27.5999ZM26.9497 21.6499L29.3127 17.3999H18.5687L20.5747 21.6499H26.9497Z" fill="#151718"/>
</svg>
