<svg width="45" height="45" viewBox="0 0 45 45" fill="none" xmlns="http://www.w3.org/2000/svg">
<circle cx="22.6997" cy="22.5" r="22.1" fill="#F5F7FA"/>
<path d="M27.7996 27.6C28.2505 27.6 28.6829 27.7791 29.0017 28.0979C29.3205 28.4167 29.4996 28.8491 29.4996 29.3C29.4996 29.7508 29.3205 30.1832 29.0017 30.502C28.6829 30.8209 28.2505 31 27.7996 31C27.3488 31 26.9163 30.8209 26.5975 30.502C26.2787 30.1832 26.0996 29.7508 26.0996 29.3C26.0996 28.3565 26.8561 27.6 27.7996 27.6ZM14.1996 14H16.9791L17.7781 15.7H30.3496C30.575 15.7 30.7912 15.7895 30.9507 15.949C31.1101 16.1084 31.1996 16.3246 31.1996 16.55C31.1996 16.6945 31.1571 16.839 31.0976 16.975L28.0546 22.4745C27.7656 22.993 27.2046 23.35 26.5671 23.35H20.2346L19.4696 24.7355L19.4441 24.8375C19.4441 24.8938 19.4665 24.9479 19.5064 24.9877C19.5462 25.0276 19.6003 25.05 19.6566 25.05H29.4996V26.75H19.2996C18.8488 26.75 18.4164 26.5709 18.0976 26.2521C17.7787 25.9332 17.5996 25.5008 17.5996 25.05C17.5996 24.7525 17.6761 24.472 17.8036 24.234L18.9596 22.1515L15.8996 15.7H14.1996V14ZM19.2996 27.6C19.7505 27.6 20.1829 27.7791 20.5017 28.0979C20.8205 28.4167 20.9996 28.8491 20.9996 29.3C20.9996 29.7508 20.8205 30.1832 20.5017 30.502C20.1829 30.8209 19.7505 31 19.2996 31C18.8488 31 18.4164 30.8209 18.0976 30.502C17.7787 30.1832 17.5996 29.7508 17.5996 29.3C17.5996 28.3565 18.3561 27.6 19.2996 27.6ZM26.9496 21.65L29.3126 17.4H18.5686L20.5746 21.65H26.9496Z" fill="#151718"/>
</svg>
