<svg width="45" height="45" viewBox="0 0 45 45" fill="none" xmlns="http://www.w3.org/2000/svg">
<circle cx="22.4997" cy="22.5" r="22.1" fill="#F5F7FA"/>
<path d="M27.4685 31.8499C27.2192 31.8497 26.9755 31.7714 26.7688 31.625L22.559 28.666C22.5383 28.651 22.5137 28.6429 22.4885 28.6429C22.4633 28.6429 22.4387 28.651 22.4179 28.666L18.2082 31.625C17.9968 31.7731 17.7474 31.8502 17.4933 31.8461C17.2391 31.842 16.9921 31.7569 16.7852 31.6021C16.5782 31.4474 16.421 31.2303 16.3345 30.9796C16.248 30.7289 16.2362 30.4566 16.3008 30.1988L17.6833 25.0855C17.6899 25.0598 17.6891 25.0326 17.6811 25.0074C17.673 24.9821 17.6581 24.9599 17.6382 24.9435L13.6541 21.6589C13.4444 21.495 13.2888 21.2665 13.2092 21.0052C13.1296 20.7439 13.13 20.4631 13.2103 20.202C13.2905 19.941 13.4467 19.7129 13.6568 19.5496C13.867 19.3863 14.1206 19.2961 14.3821 19.2917L19.4609 19.0904C19.4859 19.0886 19.5098 19.0793 19.5299 19.0635C19.5499 19.0478 19.5651 19.0263 19.5738 19.0017L21.3232 14.0127C21.4113 13.7598 21.5715 13.5414 21.782 13.3871C21.9924 13.2328 22.243 13.15 22.4998 13.15C22.7565 13.15 23.0071 13.2328 23.2176 13.3871C23.428 13.5414 23.5882 13.7598 23.6764 14.0127L25.4257 19.0017C25.4344 19.0263 25.4496 19.0478 25.4697 19.0635C25.4897 19.0793 25.5136 19.0886 25.5386 19.0904L30.6174 19.2917C30.8789 19.2961 31.1325 19.3863 31.3427 19.5496C31.5528 19.7129 31.709 19.941 31.7893 20.202C31.8695 20.4631 31.8699 20.7439 31.7903 21.0052C31.7107 21.2665 31.5551 21.495 31.3454 21.6589L27.3613 24.9435C27.3408 24.9594 27.3254 24.9816 27.3173 25.007C27.3093 25.0324 27.3089 25.0598 27.3162 25.0855L28.6988 30.1988C28.7473 30.3949 28.7521 30.6001 28.7128 30.7985C28.6735 30.9969 28.5912 31.1831 28.4723 31.3428C28.3533 31.5025 28.2009 31.6313 28.0268 31.7192C27.8528 31.8071 27.6617 31.8519 27.4685 31.8499ZM22.4913 27.4587C22.7412 27.4667 22.983 27.5533 23.1854 27.7072L27.3952 30.6663C27.4165 30.6833 27.4425 30.6926 27.4693 30.6928C27.4961 30.6931 27.5223 30.6842 27.5439 30.6675C27.5654 30.6509 27.5813 30.6274 27.5891 30.6005C27.5969 30.5736 27.5962 30.5448 27.5871 30.5183L26.2045 25.4051C26.1364 25.1543 26.1415 24.8878 26.2189 24.64C26.2963 24.3922 26.4426 24.1743 26.639 24.0143L30.6231 20.7298C30.6448 20.7137 30.6611 20.6909 30.6695 20.6644C30.6779 20.638 30.678 20.6095 30.6698 20.583C30.6616 20.5565 30.6455 20.5335 30.6239 20.5173C30.6023 20.5011 30.5763 20.4926 30.5497 20.493L25.4709 20.2918C25.2222 20.2817 24.982 20.194 24.781 20.0401C24.58 19.8863 24.4273 19.6731 24.3422 19.4278L22.5929 14.4388C22.585 14.4123 22.5692 14.3891 22.5479 14.3727C22.5266 14.3563 22.5008 14.3474 22.4744 14.3474C22.4479 14.3474 22.4221 14.3563 22.4008 14.3727C22.3795 14.3891 22.3637 14.4123 22.3559 14.4388L20.6234 19.4219C20.5384 19.6672 20.3857 19.8803 20.1846 20.0342C19.9836 20.1881 19.7435 20.2757 19.4948 20.2859L14.416 20.4871C14.3894 20.4867 14.3634 20.4952 14.3418 20.5113C14.3202 20.5275 14.3041 20.5506 14.2959 20.5771C14.2877 20.6035 14.2878 20.6321 14.2962 20.6585C14.3046 20.6849 14.3209 20.7078 14.3426 20.7238L18.3323 24.0143C18.5281 24.1748 18.6739 24.3927 18.7513 24.6404C18.8287 24.888 18.8341 25.1542 18.7668 25.4051L17.3899 30.5183C17.3817 30.5439 17.3816 30.5717 17.3898 30.5973C17.3979 30.6229 17.4138 30.6451 17.435 30.6604C17.4555 30.6787 17.4815 30.6888 17.5084 30.6888C17.5353 30.6888 17.5613 30.6787 17.5818 30.6604L21.7915 27.7013C21.9973 27.5582 22.2388 27.482 22.4857 27.4823L22.4913 27.4587Z" fill="#151718"/>
</svg>
