<svg width="30" height="31" viewBox="0 0 30 31" fill="none" xmlns="http://www.w3.org/2000/svg">
<path opacity="0.1" fill-rule="evenodd" clip-rule="evenodd" d="M0 15.969C0 7.68472 6.71573 0.968994 15 0.968994C23.2843 0.968994 30 7.68472 30 15.969C30 24.2533 23.2843 30.969 15 30.969C6.71573 30.969 0 24.2533 0 15.969Z" fill="white"/>
<path fill-rule="evenodd" clip-rule="evenodd" d="M21.251 10.8123C21.9395 11.0012 22.4816 11.5579 22.6656 12.2648C23 13.5459 23 16.219 23 16.219C23 16.219 23 18.892 22.6656 20.1732C22.4816 20.8801 21.9395 21.4367 21.251 21.6258C20.0034 21.969 15 21.969 15 21.969C15 21.969 9.99664 21.969 8.74891 21.6258C8.06045 21.4367 7.51827 20.8801 7.33427 20.1732C7 18.892 7 16.219 7 16.219C7 16.219 7 13.5459 7.33427 12.2648C7.51827 11.5579 8.06045 11.0012 8.74891 10.8123C9.99664 10.469 15 10.469 15 10.469C15 10.469 20.0034 10.469 21.251 10.8123ZM13.5 13.9689V18.9689L17.5 16.469L13.5 13.9689Z" fill="white"/>
</svg>
