<svg width="30" height="31" viewBox="0 0 30 31" fill="none" xmlns="http://www.w3.org/2000/svg">
<path opacity="0.1" fill-rule="evenodd" clip-rule="evenodd" d="M0 15.969C0 7.68472 6.71573 0.968994 15 0.968994C23.2843 0.968994 30 7.68472 30 15.969C30 24.2533 23.2843 30.969 15 30.969C6.71573 30.969 0 24.2533 0 15.969Z" fill="white"/>
<path fill-rule="evenodd" clip-rule="evenodd" d="M15.0007 7.96899C12.8281 7.96899 12.5554 7.97849 11.702 8.01733C10.8504 8.05633 10.269 8.19116 9.76036 8.389C9.23419 8.59333 8.78785 8.86667 8.34318 9.31151C7.89818 9.75618 7.62484 10.2025 7.41984 10.7285C7.2215 11.2374 7.0865 11.8189 7.04817 12.6702C7.01 13.5236 7 13.7964 7 15.9691C7 18.1418 7.00967 18.4136 7.04833 19.2669C7.0875 20.1186 7.22234 20.7 7.42 21.2086C7.62451 21.7348 7.89784 22.1811 8.34268 22.6258C8.78719 23.0708 9.23352 23.3448 9.75936 23.5492C10.2684 23.747 10.8499 23.8818 11.7014 23.9208C12.5547 23.9597 12.8272 23.9692 14.9998 23.9692C17.1726 23.9692 17.4444 23.9597 18.2978 23.9208C19.1495 23.8818 19.7315 23.747 20.2405 23.5492C20.7665 23.3448 21.2121 23.0708 21.6567 22.6258C22.1017 22.1811 22.375 21.7348 22.58 21.2088C22.7767 20.7 22.9117 20.1185 22.9517 19.2671C22.99 18.4138 23 18.1418 23 15.9691C23 13.7964 22.99 13.5237 22.9517 12.6704C22.9117 11.8187 22.7767 11.2374 22.58 10.7287C22.375 10.2025 22.1017 9.75618 21.6567 9.31151C21.2116 8.8665 20.7666 8.59317 20.24 8.389C19.73 8.19116 19.1483 8.05633 18.2966 8.01733C17.4433 7.97849 17.1716 7.96899 14.9983 7.96899H15.0007ZM14.283 9.41065C14.496 9.41032 14.7337 9.41065 15.0007 9.41065C17.1367 9.41065 17.3899 9.41832 18.2334 9.45665C19.0134 9.49232 19.4368 9.62266 19.7188 9.73216C20.0921 9.87716 20.3583 10.0505 20.6381 10.3305C20.9181 10.6105 21.0914 10.8772 21.2368 11.2505C21.3463 11.5322 21.4768 11.9555 21.5123 12.7355C21.5506 13.5789 21.5589 13.8322 21.5589 15.9672C21.5589 18.1022 21.5506 18.3556 21.5123 19.1989C21.4766 19.9789 21.3463 20.4023 21.2368 20.6839C21.0918 21.0573 20.9181 21.3231 20.6381 21.6029C20.3581 21.8829 20.0923 22.0563 19.7188 22.2013C19.4371 22.3113 19.0134 22.4413 18.2334 22.477C17.3901 22.5153 17.1367 22.5236 15.0007 22.5236C12.8645 22.5236 12.6114 22.5153 11.768 22.477C10.988 22.441 10.5647 22.3106 10.2825 22.2011C9.90916 22.0561 9.64249 21.8828 9.36249 21.6028C9.08249 21.3228 8.90915 21.0568 8.76382 20.6833C8.65432 20.4016 8.52381 19.9783 8.48831 19.1983C8.44998 18.3549 8.44231 18.1016 8.44231 15.9652C8.44231 13.8289 8.44998 13.5769 8.48831 12.7335C8.52398 11.9535 8.65432 11.5302 8.76382 11.2482C8.90882 10.8748 9.08249 10.6082 9.36249 10.3282C9.64249 10.0482 9.90916 9.87482 10.2825 9.72949C10.5645 9.61949 10.988 9.48949 11.768 9.45365C12.506 9.42032 12.792 9.41032 14.283 9.40865V9.41065ZM19.2711 10.739C18.7411 10.739 18.3111 11.1685 18.3111 11.6987C18.3111 12.2287 18.7411 12.6587 19.2711 12.6587C19.8011 12.6587 20.2311 12.2287 20.2311 11.6987C20.2311 11.1687 19.8011 10.739 19.2711 10.739ZM15.0008 11.8607C12.7319 11.8607 10.8924 13.7002 10.8924 15.9691C10.8924 18.2379 12.7319 20.0766 15.0008 20.0766C17.2696 20.0766 19.1085 18.2379 19.1085 15.9691C19.1085 13.7002 17.2696 11.8607 15.0008 11.8607ZM15.0007 13.3024C16.4734 13.3024 17.6674 14.4962 17.6674 15.9691C17.6674 17.4417 16.4734 18.6357 15.0007 18.6357C13.5279 18.6357 12.334 17.4417 12.334 15.9691C12.334 14.4962 13.5279 13.3024 15.0007 13.3024Z" fill="white"/>
</svg>
