<svg width="30" height="31" viewBox="0 0 30 31" fill="none" xmlns="http://www.w3.org/2000/svg">
<path opacity="0.1" fill-rule="evenodd" clip-rule="evenodd" d="M0 15.0896C0 6.80533 6.71573 0.0895996 15 0.0895996C23.2843 0.0895996 30 6.80533 30 15.0896C30 23.3739 23.2843 30.0896 15 30.0896C6.71573 30.0896 0 23.3739 0 15.0896Z" fill="white"/>
<path fill-rule="evenodd" clip-rule="evenodd" d="M15.0007 7.0896C12.8281 7.0896 12.5554 7.0991 11.702 7.13793C10.8504 7.17693 10.269 7.31177 9.76036 7.5096C9.23419 7.71394 8.78785 7.98728 8.34318 8.43211C7.89818 8.87678 7.62484 9.32312 7.41984 9.84913C7.2215 10.358 7.0865 10.9395 7.04817 11.7908C7.01 12.6442 7 12.917 7 15.0897C7 17.2624 7.00967 17.5342 7.04833 18.3875C7.0875 19.2392 7.22234 19.8206 7.42 20.3292C7.62451 20.8554 7.89784 21.3017 8.34268 21.7464C8.78719 22.1914 9.23352 22.4654 9.75936 22.6698C10.2684 22.8676 10.8499 23.0024 11.7014 23.0414C12.5547 23.0803 12.8272 23.0898 14.9998 23.0898C17.1726 23.0898 17.4444 23.0803 18.2978 23.0414C19.1495 23.0024 19.7315 22.8676 20.2405 22.6698C20.7665 22.4654 21.2121 22.1914 21.6567 21.7464C22.1017 21.3017 22.375 20.8554 22.58 20.3294C22.7767 19.8206 22.9117 19.2391 22.9517 18.3877C22.99 17.5344 23 17.2624 23 15.0897C23 12.917 22.99 12.6443 22.9517 11.791C22.9117 10.9393 22.7767 10.358 22.58 9.84929C22.375 9.32312 22.1017 8.87678 21.6567 8.43211C21.2116 7.98711 20.7666 7.71377 20.24 7.5096C19.73 7.31177 19.1483 7.17693 18.2966 7.13793C17.4433 7.0991 17.1716 7.0896 14.9983 7.0896H15.0007ZM14.283 8.53126C14.496 8.53093 14.7337 8.53126 15.0007 8.53126C17.1367 8.53126 17.3899 8.53893 18.2334 8.57726C19.0134 8.61293 19.4368 8.74326 19.7188 8.85276C20.0921 8.99776 20.3583 9.1711 20.6381 9.4511C20.9181 9.7311 21.0914 9.99777 21.2368 10.3711C21.3463 10.6528 21.4768 11.0761 21.5123 11.8561C21.5506 12.6995 21.5589 12.9528 21.5589 15.0878C21.5589 17.2228 21.5506 17.4762 21.5123 18.3195C21.4766 19.0995 21.3463 19.5229 21.2368 19.8045C21.0918 20.1779 20.9181 20.4437 20.6381 20.7236C20.3581 21.0036 20.0923 21.1769 19.7188 21.3219C19.4371 21.4319 19.0134 21.5619 18.2334 21.5976C17.3901 21.6359 17.1367 21.6442 15.0007 21.6442C12.8645 21.6442 12.6114 21.6359 11.768 21.5976C10.988 21.5616 10.5647 21.4312 10.2825 21.3217C9.90916 21.1767 9.64249 21.0034 9.36249 20.7234C9.08249 20.4434 8.90915 20.1774 8.76382 19.8039C8.65432 19.5222 8.52381 19.0989 8.48831 18.3189C8.44998 17.4755 8.44231 17.2222 8.44231 15.0858C8.44231 12.9495 8.44998 12.6975 8.48831 11.8541C8.52398 11.0741 8.65432 10.6508 8.76382 10.3688C8.90882 9.99544 9.08249 9.72877 9.36249 9.44877C9.64249 9.16877 9.90916 8.99543 10.2825 8.8501C10.5645 8.74009 10.988 8.61009 11.768 8.57426C12.506 8.54093 12.792 8.53093 14.283 8.52926V8.53126ZM19.2711 9.85961C18.7411 9.85961 18.3111 10.2891 18.3111 10.8193C18.3111 11.3493 18.7411 11.7793 19.2711 11.7793C19.8011 11.7793 20.2311 11.3493 20.2311 10.8193C20.2311 10.2893 19.8011 9.85961 19.2711 9.85961ZM15.0008 10.9813C12.7319 10.9813 10.8924 12.8208 10.8924 15.0897C10.8924 17.3585 12.7319 19.1972 15.0008 19.1972C17.2696 19.1972 19.1085 17.3585 19.1085 15.0897C19.1085 12.8208 17.2696 10.9813 15.0008 10.9813ZM15.0007 12.423C16.4734 12.423 17.6674 13.6168 17.6674 15.0897C17.6674 16.5623 16.4734 17.7564 15.0007 17.7564C13.5279 17.7564 12.334 16.5623 12.334 15.0897C12.334 13.6168 13.5279 12.423 15.0007 12.423Z" fill="white"/>
</svg>
