<svg width="30" height="31" viewBox="0 0 30 31" fill="none" xmlns="http://www.w3.org/2000/svg">
<path opacity="0.1" fill-rule="evenodd" clip-rule="evenodd" d="M0 15.9792C0 7.69498 6.71573 0.979248 15 0.979248C23.2843 0.979248 30 7.69498 30 15.9792C30 24.2635 23.2843 30.9792 15 30.9792C6.71573 30.9792 0 24.2635 0 15.9792Z" fill="white"/>
<path fill-rule="evenodd" clip-rule="evenodd" d="M15.0007 7.97925C12.8281 7.97925 12.5554 7.98875 11.702 8.02758C10.8504 8.06658 10.269 8.20142 9.76036 8.39925C9.23419 8.60359 8.78785 8.87692 8.34318 9.32176C7.89818 9.76643 7.62484 10.2128 7.41984 10.7388C7.2215 11.2476 7.0865 11.8291 7.04817 12.6805C7.01 13.5338 7 13.8066 7 15.9793C7 18.152 7.00967 18.4239 7.04833 19.2772C7.0875 20.1289 7.22234 20.7102 7.42 21.2189C7.62451 21.7451 7.89784 22.1914 8.34268 22.6361C8.78719 23.0811 9.23352 23.3551 9.75936 23.5594C10.2684 23.7572 10.8499 23.8921 11.7014 23.9311C12.5547 23.9699 12.8272 23.9794 14.9998 23.9794C17.1726 23.9794 17.4444 23.9699 18.2978 23.9311C19.1495 23.8921 19.7315 23.7572 20.2405 23.5594C20.7665 23.3551 21.2121 23.0811 21.6567 22.6361C22.1017 22.1914 22.375 21.7451 22.58 21.2191C22.7767 20.7102 22.9117 20.1287 22.9517 19.2774C22.99 18.424 23 18.152 23 15.9793C23 13.8066 22.99 13.534 22.9517 12.6806C22.9117 11.829 22.7767 11.2476 22.58 10.7389C22.375 10.2128 22.1017 9.76643 21.6567 9.32176C21.2116 8.87676 20.7666 8.60342 20.24 8.39925C19.73 8.20142 19.1483 8.06658 18.2966 8.02758C17.4433 7.98875 17.1716 7.97925 14.9983 7.97925H15.0007ZM14.283 9.42091C14.496 9.42057 14.7337 9.42091 15.0007 9.42091C17.1367 9.42091 17.3899 9.42857 18.2334 9.46691C19.0134 9.50257 19.4368 9.63291 19.7188 9.74241C20.0921 9.88741 20.3583 10.0607 20.6381 10.3407C20.9181 10.6208 21.0914 10.8874 21.2368 11.2608C21.3463 11.5424 21.4768 11.9658 21.5123 12.7458C21.5506 13.5891 21.5589 13.8425 21.5589 15.9775C21.5589 18.1125 21.5506 18.3658 21.5123 19.2092C21.4766 19.9892 21.3463 20.4125 21.2368 20.6942C21.0918 21.0675 20.9181 21.3334 20.6381 21.6132C20.3581 21.8932 20.0923 22.0665 19.7188 22.2115C19.4371 22.3215 19.0134 22.4515 18.2334 22.4872C17.3901 22.5255 17.1367 22.5339 15.0007 22.5339C12.8645 22.5339 12.6114 22.5255 11.768 22.4872C10.988 22.4512 10.5647 22.3209 10.2825 22.2114C9.90916 22.0664 9.64249 21.893 9.36249 21.613C9.08249 21.333 8.90915 21.067 8.76382 20.6935C8.65432 20.4119 8.52381 19.9885 8.48831 19.2085C8.44998 18.3652 8.44231 18.1118 8.44231 15.9755C8.44231 13.8391 8.44998 13.5871 8.48831 12.7438C8.52398 11.9638 8.65432 11.5404 8.76382 11.2584C8.90882 10.8851 9.08249 10.6184 9.36249 10.3384C9.64249 10.0584 9.90916 9.88508 10.2825 9.73974C10.5645 9.62974 10.988 9.49974 11.768 9.46391C12.506 9.43057 12.792 9.42057 14.283 9.41891V9.42091ZM19.2711 10.7493C18.7411 10.7493 18.3111 11.1788 18.3111 11.7089C18.3111 12.2389 18.7411 12.6689 19.2711 12.6689C19.8011 12.6689 20.2311 12.2389 20.2311 11.7089C20.2311 11.1789 19.8011 10.7493 19.2711 10.7493ZM15.0008 11.8709C12.7319 11.8709 10.8924 13.7105 10.8924 15.9793C10.8924 18.2482 12.7319 20.0869 15.0008 20.0869C17.2696 20.0869 19.1085 18.2482 19.1085 15.9793C19.1085 13.7105 17.2696 11.8709 15.0008 11.8709ZM15.0007 13.3126C16.4734 13.3126 17.6674 14.5065 17.6674 15.9793C17.6674 17.452 16.4734 18.646 15.0007 18.646C13.5279 18.646 12.334 17.452 12.334 15.9793C12.334 14.5065 13.5279 13.3126 15.0007 13.3126Z" fill="white"/>
</svg>
