<svg width="30" height="31" viewBox="0 0 30 31" fill="none" xmlns="http://www.w3.org/2000/svg">
<path opacity="0.1" fill-rule="evenodd" clip-rule="evenodd" d="M0 15.9792C0 7.69498 6.71573 0.979248 15 0.979248C23.2843 0.979248 30 7.69498 30 15.9792C30 24.2635 23.2843 30.9792 15 30.9792C6.71573 30.9792 0 24.2635 0 15.9792Z" fill="white"/>
<path fill-rule="evenodd" clip-rule="evenodd" d="M14.5508 13.1714L14.5822 13.6905L14.0576 13.6269C12.148 13.3833 10.4798 12.5571 9.06334 11.1694L8.37085 10.4809L8.19248 10.9894C7.81477 12.1228 8.05609 13.3197 8.843 14.1248C9.26269 14.5696 9.16826 14.6332 8.4443 14.3684C8.19248 14.2837 7.97215 14.2201 7.95116 14.2519C7.87772 14.326 8.12953 15.2899 8.32888 15.6713C8.60168 16.2009 9.15777 16.7199 9.76631 17.0271L10.2804 17.2707L9.67188 17.2813C9.08432 17.2813 9.06334 17.2919 9.12629 17.5144C9.33613 18.2029 10.165 18.9338 11.0883 19.2515L11.7388 19.474L11.1723 19.813C10.3329 20.3002 9.34663 20.5756 8.36036 20.5968C7.88821 20.6074 7.5 20.6498 7.5 20.6815C7.5 20.7875 8.78005 21.3806 9.52499 21.6137C11.7598 22.3022 14.4144 22.0056 16.4079 20.8298C17.8243 19.993 19.2408 18.33 19.9018 16.7199C20.2585 15.8619 20.6152 14.2942 20.6152 13.5422C20.6152 13.0549 20.6467 12.9914 21.2343 12.4088C21.5805 12.0698 21.9058 11.6991 21.9687 11.5931C22.0737 11.3919 22.0632 11.3919 21.5281 11.572C20.6362 11.8897 20.5103 11.8474 20.951 11.3707C21.2762 11.0317 21.6645 10.4174 21.6645 10.2373C21.6645 10.2055 21.5071 10.2585 21.3287 10.3538C21.1398 10.4597 20.7202 10.6186 20.4054 10.714L19.8388 10.894L19.3247 10.5445C19.0414 10.3538 18.6427 10.142 18.4329 10.0784C17.8978 9.93012 17.0794 9.95131 16.5967 10.1208C15.2852 10.5975 14.4563 11.8262 14.5508 13.1714Z" fill="white"/>
</svg>
