<svg width="30" height="31" viewBox="0 0 30 31" fill="none" xmlns="http://www.w3.org/2000/svg">
<path opacity="0.1" fill-rule="evenodd" clip-rule="evenodd" d="M0 15.9792C0 7.69498 6.71573 0.979248 15 0.979248C23.2843 0.979248 30 7.69498 30 15.9792C30 24.2635 23.2843 30.9792 15 30.9792C6.71573 30.9792 0 24.2635 0 15.9792Z" fill="white"/>
<path fill-rule="evenodd" clip-rule="evenodd" d="M21.251 10.8226C21.9395 11.0115 22.4816 11.5681 22.6656 12.275C23 13.5561 23 16.2292 23 16.2292C23 16.2292 23 18.9023 22.6656 20.1835C22.4816 20.8904 21.9395 21.447 21.251 21.636C20.0034 21.9792 15 21.9792 15 21.9792C15 21.9792 9.99664 21.9792 8.74891 21.636C8.06045 21.447 7.51827 20.8904 7.33427 20.1835C7 18.9023 7 16.2292 7 16.2292C7 16.2292 7 13.5561 7.33427 12.275C7.51827 11.5681 8.06045 11.0115 8.74891 10.8226C9.99664 10.4792 15 10.4792 15 10.4792C15 10.4792 20.0034 10.4792 21.251 10.8226ZM13.5 13.9792V18.9792L17.5 16.4793L13.5 13.9792Z" fill="white"/>
</svg>
