<svg width="30" height="31" viewBox="0 0 30 31" fill="none" xmlns="http://www.w3.org/2000/svg">
<path opacity="0.1" fill-rule="evenodd" clip-rule="evenodd" d="M0 15.0896C0 6.80533 6.71573 0.0895996 15 0.0895996C23.2843 0.0895996 30 6.80533 30 15.0896C30 23.3739 23.2843 30.0896 15 30.0896C6.71573 30.0896 0 23.3739 0 15.0896Z" fill="white"/>
<path fill-rule="evenodd" clip-rule="evenodd" d="M14.5508 12.2818L14.5822 12.8008L14.0576 12.7373C12.148 12.4936 10.4798 11.6674 9.06334 10.2798L8.37085 9.59129L8.19248 10.0997C7.81477 11.2331 8.05609 12.4301 8.843 13.2351C9.26269 13.68 9.16826 13.7436 8.4443 13.4787C8.19248 13.394 7.97215 13.3304 7.95116 13.3622C7.87772 13.4364 8.12953 14.4003 8.32888 14.7816C8.60168 15.3113 9.15777 15.8303 9.76631 16.1375L10.2804 16.3811L9.67188 16.3917C9.08432 16.3917 9.06334 16.4023 9.12629 16.6247C9.33613 17.3132 10.165 18.0441 11.0883 18.3619L11.7388 18.5843L11.1723 18.9233C10.3329 19.4106 9.34663 19.686 8.36036 19.7071C7.88821 19.7177 7.5 19.7601 7.5 19.7919C7.5 19.8978 8.78005 20.491 9.52499 20.724C11.7598 21.4125 14.4144 21.116 16.4079 19.9402C17.8243 19.1034 19.2408 17.4403 19.9018 15.8303C20.2585 14.9723 20.6152 13.4046 20.6152 12.6525C20.6152 12.1653 20.6467 12.1017 21.2343 11.5191C21.5805 11.1802 21.9058 10.8094 21.9687 10.7035C22.0737 10.5022 22.0632 10.5022 21.5281 10.6823C20.6362 11.0001 20.5103 10.9577 20.951 10.4811C21.2762 10.1421 21.6645 9.52773 21.6645 9.34766C21.6645 9.31588 21.5071 9.36884 21.3287 9.46418C21.1398 9.5701 20.7202 9.72899 20.4054 9.82432L19.8388 10.0044L19.3247 9.65484C19.0414 9.46418 18.6427 9.25232 18.4329 9.18877C17.8978 9.04047 17.0794 9.06166 16.5967 9.23114C15.2852 9.7078 14.4563 10.9365 14.5508 12.2818Z" fill="white"/>
</svg>
