<svg width="30" height="31" viewBox="0 0 30 31" fill="none" xmlns="http://www.w3.org/2000/svg">
<path opacity="0.1" fill-rule="evenodd" clip-rule="evenodd" d="M0 15.0896C0 6.80533 6.71573 0.0895996 15 0.0895996C23.2843 0.0895996 30 6.80533 30 15.0896C30 23.3739 23.2843 30.0896 15 30.0896C6.71573 30.0896 0 23.3739 0 15.0896Z" fill="white"/>
<path fill-rule="evenodd" clip-rule="evenodd" d="M21.251 9.93293C21.9395 10.1218 22.4816 10.6785 22.6656 11.3854C23 12.6665 23 15.3396 23 15.3396C23 15.3396 23 18.0126 22.6656 19.2938C22.4816 20.0007 21.9395 20.5574 21.251 20.7464C20.0034 21.0896 15 21.0896 15 21.0896C15 21.0896 9.99664 21.0896 8.74891 20.7464C8.06045 20.5574 7.51827 20.0007 7.33427 19.2938C7 18.0126 7 15.3396 7 15.3396C7 15.3396 7 12.6665 7.33427 11.3854C7.51827 10.6785 8.06045 10.1218 8.74891 9.93293C9.99664 9.5896 15 9.5896 15 9.5896C15 9.5896 20.0034 9.5896 21.251 9.93293ZM13.5 13.0895V18.0895L17.5 15.5896L13.5 13.0895Z" fill="white"/>
</svg>
