<svg width="30" height="31" viewBox="0 0 30 31" fill="none" xmlns="http://www.w3.org/2000/svg">
<path opacity="0.1" fill-rule="evenodd" clip-rule="evenodd" d="M0 15.969C0 7.68472 6.71573 0.968994 15 0.968994C23.2843 0.968994 30 7.68472 30 15.969C30 24.2533 23.2843 30.969 15 30.969C6.71573 30.969 0 24.2533 0 15.969Z" fill="white"/>
<path fill-rule="evenodd" clip-rule="evenodd" d="M14.5508 13.1612L14.5822 13.6802L14.0576 13.6167C12.148 13.373 10.4798 12.5468 9.06334 11.1592L8.37085 10.4707L8.19248 10.9791C7.81477 12.1125 8.05609 13.3095 8.843 14.1145C9.26269 14.5594 9.16826 14.623 8.4443 14.3581C8.19248 14.2734 7.97215 14.2098 7.95116 14.2416C7.87772 14.3158 8.12953 15.2797 8.32888 15.661C8.60168 16.1906 9.15777 16.7097 9.76631 17.0169L10.2804 17.2605L9.67188 17.2711C9.08432 17.2711 9.06334 17.2817 9.12629 17.5041C9.33613 18.1926 10.165 18.9235 11.0883 19.2413L11.7388 19.4637L11.1723 19.8027C10.3329 20.29 9.34663 20.5654 8.36036 20.5865C7.88821 20.5971 7.5 20.6395 7.5 20.6713C7.5 20.7772 8.78005 21.3704 9.52499 21.6034C11.7598 22.2919 14.4144 21.9953 16.4079 20.8196C17.8243 19.9828 19.2408 18.3197 19.9018 16.7097C20.2585 15.8517 20.6152 14.284 20.6152 13.5319C20.6152 13.0447 20.6467 12.9811 21.2343 12.3985C21.5805 12.0596 21.9058 11.6888 21.9687 11.5829C22.0737 11.3816 22.0632 11.3816 21.5281 11.5617C20.6362 11.8795 20.5103 11.8371 20.951 11.3605C21.2762 11.0215 21.6645 10.4071 21.6645 10.2271C21.6645 10.1953 21.5071 10.2482 21.3287 10.3436C21.1398 10.4495 20.7202 10.6084 20.4054 10.7037L19.8388 10.8838L19.3247 10.5342C19.0414 10.3436 18.6427 10.1317 18.4329 10.0682C17.8978 9.91987 17.0794 9.94105 16.5967 10.1105C15.2852 10.5872 14.4563 11.8159 14.5508 13.1612Z" fill="white"/>
</svg>
