<svg width="20" height="20" viewBox="0 0 20 20" fill="none" xmlns="http://www.w3.org/2000/svg">
<path d="M9.99993 1.83353C9.75082 1.8317 9.50631 1.90057 9.29478 2.03215C9.08326 2.16372 8.91339 2.35261 8.80493 2.57687L6.95326 6.3302L2.80993 6.93186C2.56348 6.96737 2.3319 7.07118 2.14142 7.23153C1.95094 7.39188 1.80916 7.60236 1.73214 7.83914C1.65512 8.07592 1.64594 8.32953 1.70564 8.57126C1.76534 8.81298 1.89153 9.03317 2.06993 9.20687L5.06993 12.1285L4.36159 16.2552C4.31946 16.5003 4.34673 16.7523 4.44032 16.9828C4.53391 17.2132 4.69009 17.4129 4.89121 17.5592C5.09232 17.7056 5.33036 17.7927 5.57842 17.8109C5.82648 17.829 6.07466 17.7774 6.29493 17.6619L9.99993 15.7135V1.83353Z" fill="#FFAD33"/>
<path opacity="0.25" d="M9.99992 1.83595C10.249 1.83404 10.5 2.00001 10.5 2.00001C10.5 2.00001 11.0865 2.20807 11.1949 2.44195L13.0466 6.35634L17.1901 6.98383C17.4365 7.02086 17.6681 7.12912 17.8586 7.29635C18.0491 7.46358 18.1908 7.68309 18.2679 7.93003C18.3449 8.17697 18.3541 8.44147 18.2944 8.69357C18.2347 8.94567 18.1085 9.1753 17.9301 9.35645L14.93 12.4035L15.6384 16.7072C15.6805 16.9629 15.6532 17.2257 15.5596 17.466C15.466 17.7064 15.3099 17.9146 15.1087 18.0672C14.9076 18.2198 14.6696 18.3107 14.4215 18.3296C14.1734 18.3486 13.9253 18.2947 13.705 18.1743L9.99992 16.1423V1.83595Z" fill="black"/>
</svg>
